# xmcd
# 
# Track frame offsets:
#     150
#     8402
#     20521
#     41553
#     72847
#     85947
#     109249
#     131510
#     158812
#     186710
#     211481
#     227710
#     257198
#     272459
#     289961
#     302212
# 
# Disc length: 4456
# 
# Revision: 4
# Processed by: cddbd v1.5.2PL0 Copyright (c) Steve Scherf et al.
# Submitted via: fre:ac v1.0.17
# 
DISCID=e4116610
DTITLE=Various Artist - TAS The Absolute Sound 2004
DYEAR=2004
DGENRE=AUDIOPHILE
TTITLE0=BT Scottish Ensemble - Depart In Peace
TTITLE1=Willard White - Eriskay Love Lilt
TTITLE2=Chole - Starry, Starry Night
TTITLE3=Allan Taylor - The Beat Hotel
TTITLE4=Cyntia M. - La Vie En Rose
TTITLE5=Meav - Youkali Tango
TTITLE6=Ivan Rebroff - Wenn Ich Einmal Reich War
TTITLE7=Eddie Higgins Trio - What A Difference A Day Made
TTITLE8=Silvia Droste - Besame Mucho
TTITLE9=Eddie Hinggins Quartet and Scott Hamilton - My Foolish heart
TTITLE10=Lisa Kelly - Dubhdarra
TTITLE11=David Roth - John And Josie
TTITLE12=Robin Spielberg - The Promise
TTITLE13=Meav - I Dreamt I Dwelt In Marble Halls
TTITLE14=Luigi Alberto Bianchi and Maurizio Preda - Sonata No.2 In C Major
TTITLE15=Maria Callas - Casta Diva
EXTD=
EXTT0=
EXTT1=
EXTT2=
EXTT3=
EXTT4=
EXTT5=
EXTT6=
EXTT7=
EXTT8=
EXTT9=
EXTT10=
EXTT11=
EXTT12=
EXTT13=
EXTT14=
EXTT15=
PLAYORDER=
